<?xml version="1.0" encoding="UTF-8" standalone="no"?>
<!-- Generator: Adobe Illustrator 19.0.0, SVG Export Plug-In . SVG Version: 6.00 Build 0)  -->

<svg
   version="1.1"
   id="Layer_1"
   x="0px"
   y="0px"
   viewBox="0 0 2320.4969 2207.304"
   xml:space="preserve"
   inkscape:version="1.1 (c68e22c387, 2021-05-23)"
   sodipodi:docname="reactor.svg"
   width="2320.4971"
   height="2207.304"
   inkscape:export-filename="E:\PROJECT\SITE\PERSONAL\REACTOR\LOGO\reactor.png"
   inkscape:export-xdpi="90"
   inkscape:export-ydpi="90"
   xmlns:inkscape="http://www.inkscape.org/namespaces/inkscape"
   xmlns:sodipodi="http://sodipodi.sourceforge.net/DTD/sodipodi-0.dtd"
   xmlns="http://www.w3.org/2000/svg"
   xmlns:svg="http://www.w3.org/2000/svg"
   xmlns:rdf="http://www.w3.org/1999/02/22-rdf-syntax-ns#"
   xmlns:cc="http://creativecommons.org/ns#"
   xmlns:dc="http://purl.org/dc/elements/1.1/"><metadata
   id="metadata43"><rdf:RDF><cc:Work
       rdf:about=""><dc:format>image/svg+xml</dc:format><dc:type
         rdf:resource="http://purl.org/dc/dcmitype/StillImage" /></cc:Work></rdf:RDF></metadata><defs
   id="defs41"><rect
     x="70.710678"
     y="2316.4817"
     width="3198.9512"
     height="941.86621"
     id="rect5915" /><clipPath
     clipPathUnits="userSpaceOnUse"
     id="clipPath24"><path
       d="m 11794.4,5026.5 c 0,0 77.1,-1387.4 1812.6,-1423 0,0 -1381.8,81.8 -1812.6,1423 z"
       id="path22" /></clipPath><linearGradient
     x1="0"
     y1="0"
     x2="1"
     y2="0"
     gradientUnits="userSpaceOnUse"
     gradientTransform="matrix(1102.93,-97.0125,-97.0125,-1102.93,15287.8,4083.9)"
     spreadMethod="pad"
     id="linearGradient32"><stop
       style="stop-opacity:1;stop-color:#00adef"
       offset="0"
       id="stop26" /><stop
       style="stop-opacity:1;stop-color:#00adef"
       offset="0.295699"
       id="stop28" /><stop
       style="stop-opacity:1;stop-color:#2c3892"
       offset="1"
       id="stop30" /></linearGradient><clipPath
     clipPathUnits="userSpaceOnUse"
     id="clipPath42"><path
       d="m 11763.2,5826.6 c 0,0 -528.9,-858.3 348.5,-1839 0,0 -676.7,812.2 -348.5,1839 z"
       id="path40" /></clipPath><linearGradient
     x1="0"
     y1="0"
     x2="1"
     y2="0"
     gradientUnits="userSpaceOnUse"
     gradientTransform="matrix(527.16,-666.996,-501.795,-594.804,13172.5,3340.5)"
     spreadMethod="pad"
     id="linearGradient50"><stop
       style="stop-opacity:1;stop-color:#00adef"
       offset="0"
       id="stop44" /><stop
       style="stop-opacity:1;stop-color:#00adef"
       offset="0.295699"
       id="stop46" /><stop
       style="stop-opacity:1;stop-color:#2c3892"
       offset="1"
       id="stop48" /></linearGradient><clipPath
     clipPathUnits="userSpaceOnUse"
     id="clipPath72"><path
       d="m 2588.92,5926.2 c 0,0 77.06,-1387.4 1812.53,-1423 0,0 -1381.79,81.8 -1812.53,1423 z"
       id="path70" /></clipPath><linearGradient
     x1="0"
     y1="0"
     x2="1"
     y2="0"
     gradientUnits="userSpaceOnUse"
     gradientTransform="matrix(1102.93,-97.0125,-97.0125,-1102.93,6082.28,4983.6)"
     spreadMethod="pad"
     id="linearGradient80"><stop
       style="stop-opacity:1;stop-color:#00adef"
       offset="0"
       id="stop74" /><stop
       style="stop-opacity:1;stop-color:#00adef"
       offset="0.295699"
       id="stop76" /><stop
       style="stop-opacity:1;stop-color:#2c3892"
       offset="1"
       id="stop78" /></linearGradient><clipPath
     clipPathUnits="userSpaceOnUse"
     id="clipPath90"><path
       d="m 2557.65,6726.3 c 0,0 -528.9,-858.3 348.55,-1839 0,0 -676.73,812.3 -348.55,1839 z"
       id="path88" /></clipPath><linearGradient
     x1="0"
     y1="0"
     x2="1"
     y2="0"
     gradientUnits="userSpaceOnUse"
     gradientTransform="matrix(527.16,-666.996,-501.795,-594.804,3967.03,4240.2)"
     spreadMethod="pad"
     id="linearGradient98"><stop
       style="stop-opacity:1;stop-color:#00adef"
       offset="0"
       id="stop92" /><stop
       style="stop-opacity:1;stop-color:#00adef"
       offset="0.295699"
       id="stop94" /><stop
       style="stop-opacity:1;stop-color:#2c3892"
       offset="1"
       id="stop96" /></linearGradient><clipPath
     clipPathUnits="userSpaceOnUse"
     id="clipPath110"><path
       d="m 12268.9,14695.1 c 0,0 488.2,-2310.6 3412.5,-1921.6 0,0 -2342.2,-219.9 -3412.5,1921.6 z"
       id="path108" /></clipPath><linearGradient
     x1="0"
     y1="0"
     x2="1"
     y2="0"
     gradientUnits="userSpaceOnUse"
     gradientTransform="matrix(1877.7,122.261,122.261,-1877.7,18380.5,14015.2)"
     spreadMethod="pad"
     id="linearGradient118"><stop
       style="stop-opacity:1;stop-color:#00adef"
       offset="0"
       id="stop112" /><stop
       style="stop-opacity:1;stop-color:#00adef"
       offset="0.295699"
       id="stop114" /><stop
       style="stop-opacity:1;stop-color:#2c3892"
       offset="1"
       id="stop116" /></linearGradient><clipPath
     clipPathUnits="userSpaceOnUse"
     id="clipPath128"><path
       d="m 15815.2,16419 c -93.9,4.2 -182.4,2.3 -266.1,-4.9 -314.7,-27.2 -559,-128.8 -745.9,-255.2 -405.3,-274.1 -540.8,-664.8 -540.8,-664.8 113.4,159.3 245.2,290.2 385,397.8 252.9,194.4 532.5,312.5 778.9,384.3 115.1,33.6 222.9,57 317.5,73.3 88.4,15.3 165.2,24.4 225.2,29.9 9.2,8.1 18.3,16.2 27.6,24.2 -62.5,7.7 -123,12.8 -181.4,15.4 z"
       id="path126" /></clipPath><linearGradient
     x1="0"
     y1="0"
     x2="1"
     y2="0"
     gradientUnits="userSpaceOnUse"
     gradientTransform="matrix(45643.7,12448.3,12448.3,-45643.7,-4296.91,10731.7)"
     spreadMethod="pad"
     id="linearGradient134"><stop
       style="stop-opacity:1;stop-color:#00adef"
       offset="0"
       id="stop130" /><stop
       style="stop-opacity:1;stop-color:#2c3892"
       offset="1"
       id="stop132" /></linearGradient><clipPath
     clipPathUnits="userSpaceOnUse"
     id="clipPath144"><path
       d="m 14060.1,14010 c -134.5,277.1 -200,602.2 -180.6,928.5 27.2,456.4 219.9,1043.4 940.1,1403.4 -913.5,-342 -1143.8,-1002.5 -1173.7,-1504.7 -19.4,-326.4 46.1,-651.5 180.6,-928.6 833.6,-1717.7 2656.1,-937.3 3006,-767.5 -617.9,-240.7 -2058.1,-602.9 -2772.4,868.9 z"
       id="path142" /></clipPath><linearGradient
     x1="0"
     y1="0"
     x2="1"
     y2="0"
     gradientUnits="userSpaceOnUse"
     gradientTransform="matrix(6161.75,1680.48,1680.48,-6161.75,13455.7,14066)"
     spreadMethod="pad"
     id="linearGradient150"><stop
       style="stop-opacity:1;stop-color:#00adef"
       offset="0"
       id="stop146" /><stop
       style="stop-opacity:1;stop-color:#2c3892"
       offset="1"
       id="stop148" /></linearGradient><clipPath
     clipPathUnits="userSpaceOnUse"
     id="clipPath160"><path
       d="m 15129.5,15957.6 c 0,0 496.1,418.4 1103.8,-95.2 0,0 -562.1,334.3 -1103.8,95.2 z"
       id="path158" /></clipPath><linearGradient
     x1="0"
     y1="0"
     x2="1"
     y2="0"
     gradientUnits="userSpaceOnUse"
     gradientTransform="matrix(3323.64,-920.891,-920.891,-3323.64,14686.1,16242.3)"
     spreadMethod="pad"
     id="linearGradient166"><stop
       style="stop-opacity:1;stop-color:#00adef"
       offset="0"
       id="stop162" /><stop
       style="stop-opacity:1;stop-color:#2c3892"
       offset="1"
       id="stop164" /></linearGradient><clipPath
     clipPathUnits="userSpaceOnUse"
     id="clipPath176"><path
       d="m 3295.49,13753.6 c 1451.93,-1428.9 3276.78,-606.3 3276.78,-606.3 -2246.89,-1119.2 -3276.78,606.3 -3276.78,606.3 z m -290.32,365.3 c 430.74,-1341.3 1812.53,-1423.1 1812.53,-1423.1 -1735.47,35.6 -1812.53,1423.1 -1812.53,1423.1 z M 2973.9,14919 C 2645.72,13892.2 3322.45,13079.9 3322.45,13079.9 2445,14060.6 2973.9,14919 2973.9,14919 Z m 4653.29,-370.1 c -442.85,-84.5 -987.83,-283.3 -1596.4,-704.2 0,0 -1999.71,-1408.2 -2707.57,390.8 -0.51,1.3 -0.77,1.9 -0.77,1.9 0.26,-0.6 0.52,-1.3 0.77,-1.9 25.21,-62.5 675.94,-1612.1 2624.78,-84.1 655.72,514.1 1201.94,714.2 1635.44,756.9 -51.73,229.6 -135.58,447 -246.61,647.3 522,341.4 1173.81,482.5 1173.81,482.5 -511.71,46.1 -1002.86,-196.2 -1254.21,-347.8 -0.39,0.6 -0.78,1.3 -1.17,1.9 -356.8,-210.9 -754.06,-531.5 -1150.74,-1018.5 0,0 -1528.42,-1909.4 -2709.28,-378.8 -0.85,1.1 -1.28,1.7 -1.28,1.7 0.43,-0.6 0.85,-1.1 1.28,-1.7 41.63,-53 1098.17,-1360.1 2544.36,650.2 380.61,529.1 750.35,855 1086.94,1049.3 -450.29,508.5 -1108.07,829.1 -1840.74,829.1 -1357.39,0 -2457.77,-1100.4 -2457.77,-2457.8 0,-1357.3 1100.38,-2457.7 2457.77,-2457.7 1357.39,0 2457.77,1100.4 2457.77,2457.7 0,14.9 -0.15,29.8 -0.42,44.7 433.05,118.4 814.79,137.4 814.79,137.4 -285.69,74 -580.16,53 -830.75,1.1 z"
       id="path174" /></clipPath><linearGradient
     x1="0"
     y1="0"
     x2="1"
     y2="0"
     gradientUnits="userSpaceOnUse"
     gradientTransform="matrix(5782.61,0,0,-5782.61,2728.03,14365.7)"
     spreadMethod="pad"
     id="linearGradient184"><stop
       style="stop-opacity:1;stop-color:#00adef"
       offset="0"
       id="stop178" /><stop
       style="stop-opacity:1;stop-color:#00adef"
       offset="0.295699"
       id="stop180" /><stop
       style="stop-opacity:1;stop-color:#2c3892"
       offset="1"
       id="stop182" /></linearGradient><clipPath
     clipPathUnits="userSpaceOnUse"
     id="clipPath24-4"><path
       d="m 11794.4,5026.5 c 0,0 77.1,-1387.4 1812.6,-1423 0,0 -1381.8,81.8 -1812.6,1423 z"
       id="path22-6" /></clipPath><clipPath
     clipPathUnits="userSpaceOnUse"
     id="clipPath42-5"><path
       d="m 11763.2,5826.6 c 0,0 -528.9,-858.3 348.5,-1839 0,0 -676.7,812.2 -348.5,1839 z"
       id="path40-5" /></clipPath><clipPath
     clipPathUnits="userSpaceOnUse"
     id="clipPath72-7"><path
       d="m 2588.92,5926.2 c 0,0 77.06,-1387.4 1812.53,-1423 0,0 -1381.79,81.8 -1812.53,1423 z"
       id="path70-3" /></clipPath><clipPath
     clipPathUnits="userSpaceOnUse"
     id="clipPath90-9"><path
       d="m 2557.65,6726.3 c 0,0 -528.9,-858.3 348.55,-1839 0,0 -676.73,812.3 -348.55,1839 z"
       id="path88-6" /></clipPath><clipPath
     clipPathUnits="userSpaceOnUse"
     id="clipPath110-5"><path
       d="m 12268.9,14695.1 c 0,0 488.2,-2310.6 3412.5,-1921.6 0,0 -2342.2,-219.9 -3412.5,1921.6 z"
       id="path108-9" /></clipPath><clipPath
     clipPathUnits="userSpaceOnUse"
     id="clipPath128-9"><path
       d="m 15815.2,16419 c -93.9,4.2 -182.4,2.3 -266.1,-4.9 -314.7,-27.2 -559,-128.8 -745.9,-255.2 -405.3,-274.1 -540.8,-664.8 -540.8,-664.8 113.4,159.3 245.2,290.2 385,397.8 252.9,194.4 532.5,312.5 778.9,384.3 115.1,33.6 222.9,57 317.5,73.3 88.4,15.3 165.2,24.4 225.2,29.9 9.2,8.1 18.3,16.2 27.6,24.2 -62.5,7.7 -123,12.8 -181.4,15.4 z"
       id="path126-1" /></clipPath><clipPath
     clipPathUnits="userSpaceOnUse"
     id="clipPath144-7"><path
       d="m 14060.1,14010 c -134.5,277.1 -200,602.2 -180.6,928.5 27.2,456.4 219.9,1043.4 940.1,1403.4 -913.5,-342 -1143.8,-1002.5 -1173.7,-1504.7 -19.4,-326.4 46.1,-651.5 180.6,-928.6 833.6,-1717.7 2656.1,-937.3 3006,-767.5 -617.9,-240.7 -2058.1,-602.9 -2772.4,868.9 z"
       id="path142-4" /></clipPath><clipPath
     clipPathUnits="userSpaceOnUse"
     id="clipPath160-0"><path
       d="m 15129.5,15957.6 c 0,0 496.1,418.4 1103.8,-95.2 0,0 -562.1,334.3 -1103.8,95.2 z"
       id="path158-9" /></clipPath><clipPath
     clipPathUnits="userSpaceOnUse"
     id="clipPath176-8"><path
       d="m 3295.49,13753.6 c 1451.93,-1428.9 3276.78,-606.3 3276.78,-606.3 -2246.89,-1119.2 -3276.78,606.3 -3276.78,606.3 z m -290.32,365.3 c 430.74,-1341.3 1812.53,-1423.1 1812.53,-1423.1 -1735.47,35.6 -1812.53,1423.1 -1812.53,1423.1 z M 2973.9,14919 C 2645.72,13892.2 3322.45,13079.9 3322.45,13079.9 2445,14060.6 2973.9,14919 2973.9,14919 Z m 4653.29,-370.1 c -442.85,-84.5 -987.83,-283.3 -1596.4,-704.2 0,0 -1999.71,-1408.2 -2707.57,390.8 -0.51,1.3 -0.77,1.9 -0.77,1.9 0.26,-0.6 0.52,-1.3 0.77,-1.9 25.21,-62.5 675.94,-1612.1 2624.78,-84.1 655.72,514.1 1201.94,714.2 1635.44,756.9 -51.73,229.6 -135.58,447 -246.61,647.3 522,341.4 1173.81,482.5 1173.81,482.5 -511.71,46.1 -1002.86,-196.2 -1254.21,-347.8 -0.39,0.6 -0.78,1.3 -1.17,1.9 -356.8,-210.9 -754.06,-531.5 -1150.74,-1018.5 0,0 -1528.42,-1909.4 -2709.28,-378.8 -0.85,1.1 -1.28,1.7 -1.28,1.7 0.43,-0.6 0.85,-1.1 1.28,-1.7 41.63,-53 1098.17,-1360.1 2544.36,650.2 380.61,529.1 750.35,855 1086.94,1049.3 -450.29,508.5 -1108.07,829.1 -1840.74,829.1 -1357.39,0 -2457.77,-1100.4 -2457.77,-2457.8 0,-1357.3 1100.38,-2457.7 2457.77,-2457.7 1357.39,0 2457.77,1100.4 2457.77,2457.7 0,14.9 -0.15,29.8 -0.42,44.7 433.05,118.4 814.79,137.4 814.79,137.4 -285.69,74 -580.16,53 -830.75,1.1 z"
       id="path174-2" /></clipPath><linearGradient
     x1="0"
     y1="0"
     x2="1"
     y2="0"
     gradientUnits="userSpaceOnUse"
     gradientTransform="matrix(5782.61,0,0,-5782.61,2728.03,14365.7)"
     spreadMethod="pad"
     id="linearGradient184-3"><stop
       style="stop-opacity:1;stop-color:#00adef"
       offset="0"
       id="stop178-5" /><stop
       style="stop-opacity:1;stop-color:#00adef"
       offset="0.295699"
       id="stop180-0" /><stop
       style="stop-opacity:1;stop-color:#2c3892"
       offset="1"
       id="stop182-2" /></linearGradient></defs><sodipodi:namedview
   pagecolor="#ffffff"
   bordercolor="#666666"
   borderopacity="1"
   objecttolerance="10"
   gridtolerance="10"
   guidetolerance="10"
   inkscape:pageopacity="0"
   inkscape:pageshadow="2"
   inkscape:window-width="3840"
   inkscape:window-height="2126"
   id="namedview39"
   showgrid="false"
   inkscape:zoom="0.1767767"
   inkscape:cx="5498.4623"
   inkscape:cy="4785.6987"
   inkscape:window-x="-11"
   inkscape:window-y="-11"
   inkscape:window-maximized="1"
   inkscape:current-layer="layer2"
   fit-margin-top="100"
   fit-margin-left="100"
   fit-margin-right="100"
   fit-margin-bottom="100"
   inkscape:pagecheckerboard="0"
   showguides="true"
   inkscape:guide-bbox="true" /><g
   id="g9"
   transform="translate(1426.7768,2694.8344)"
   style="stroke:#4ba6c2;stroke-opacity:1" /><g
   id="g11"
   transform="translate(1426.7768,2694.8344)"
   style="stroke:#4ba6c2;stroke-opacity:1" /><g
   id="g13"
   transform="translate(1426.7768,2694.8344)"
   style="stroke:#4ba6c2;stroke-opacity:1" /><g
   id="g15"
   transform="translate(1426.7768,2694.8344)"
   style="stroke:#4ba6c2;stroke-opacity:1" /><g
   id="g17"
   transform="translate(1426.7768,2694.8344)"
   style="stroke:#4ba6c2;stroke-opacity:1" /><g
   id="g19"
   transform="translate(1426.7768,2694.8344)"
   style="stroke:#4ba6c2;stroke-opacity:1" /><g
   id="g21"
   transform="translate(1426.7768,2694.8344)"
   style="stroke:#4ba6c2;stroke-opacity:1" /><g
   id="g23"
   transform="translate(1426.7768,2694.8344)"
   style="stroke:#4ba6c2;stroke-opacity:1" /><g
   id="g25"
   transform="translate(1426.7768,2694.8344)"
   style="stroke:#4ba6c2;stroke-opacity:1" /><g
   id="g27"
   transform="translate(1426.7768,2694.8344)"
   style="stroke:#4ba6c2;stroke-opacity:1" /><g
   id="g29"
   transform="translate(1426.7768,2694.8344)"
   style="stroke:#4ba6c2;stroke-opacity:1" /><g
   id="g31"
   transform="translate(1426.7768,2694.8344)"
   style="stroke:#4ba6c2;stroke-opacity:1" /><g
   id="g33"
   transform="translate(1426.7768,2694.8344)"
   style="stroke:#4ba6c2;stroke-opacity:1" /><g
   id="g35"
   transform="translate(1426.7768,2694.8344)"
   style="stroke:#4ba6c2;stroke-opacity:1" /><g
   id="g37"
   transform="translate(1426.7768,2694.8344)"
   style="stroke:#4ba6c2;stroke-opacity:1" />
<g
   inkscape:groupmode="layer"
   id="layer1"
   inkscape:label="Drawing"
   style="display:inline"
   transform="translate(1681.8526,758.95497)" /><g
   inkscape:groupmode="layer"
   id="layer2"
   inkscape:label="Text"
   style="display:inline"
   transform="translate(1681.8526,758.95497)"><path
     d="m -551.1909,-656.17228 c -33.89483,6.26627 -76.33459,33.32518 -106.52663,67.22001 -55.8268,62.94756 -97.98172,154.94784 -128.45859,279.13397 -15.38086,62.66273 -15.38086,62.66273 -9.39941,64.37171 13.38703,3.7028 52.40882,10.53874 53.83298,9.39941 0.85449,-0.85449 6.26627,-22.78644 12.24771,-48.70603 30.7617,-131.59172 83.17053,-239.25768 138.99732,-285.40024 35.88866,-29.33755 71.49248,-35.60382 105.95698,-18.22915 22.78645,11.39322 52.97849,41.0156 74.05595,72.34696 24.2106,36.17349 64.94137,126.17995 72.34697,160.35962 l 1.99381,8.54492 -42.72458,14.81119 c -193.6848,66.36552 -406.73807,193.39996 -555.9893,330.9731308 l -30.19204,27.9133972 -8.54492,-9.114579 c -17.94432,-18.7988182 -49.84535,-60.099252 -68.07455,-87.727819 -37.3128,-56.96612 -56.3964,-107.66596 -56.1116,-150.67538 0,-36.17348 11.9629,-58.39027 40.7308,-76.90425 30.192,-19.36848 65.79586,-25.91959 139.56698,-25.63476 h 53.26332 l 1.99381,-13.1022 c 0.85449,-7.4056 1.70898,-20.79263 1.70898,-29.62238 v -16.23535 l -19.08364,-1.70898 c -75.76494,-7.40559 -156.08715,4.27246 -201.37525,28.76789 -18.2291,9.96907 -44.4335,34.17967 -55.5419,51.55433 -37.5977,58.6751 -27.3438,143.26979 29.0527,239.542523 21.3623,36.458314 48.9908,74.0559504 90.8609,123.04681 l 8.8298,10.823562 -8.8298,10.538732 c -41.8701,49.275693 -69.4986,86.873323 -90.8609,123.331643 -56.3965,96.27273 -66.6504,180.86742 -29.0527,239.54252 11.1084,17.37466 37.3128,41.58526 55.5419,51.55433 45.5729,24.49543 122.19234,35.60382 201.37525,29.05272 l 21.93195,-1.99381 -1.42415,-10.25391 c -0.56966,-5.69661 -1.99382,-18.79881 -2.84831,-29.05271 l -1.70898,-18.79882 h -57.53578 c -65.51103,-0.28483 -90.29128,-3.98763 -123.04678,-19.08365 -21.932,-10.2539 -38.737,-26.48925 -46.9971,-45.57289 -25.9196,-58.6751 14.5264,-157.51132 109.09014,-267.45592 l 16.52017,-19.36848 30.47687,28.19823 c 147.82707,136.14902 354.61407,260.33515 544.59607,326.70067 25.91958,8.82975 48.70603,16.80501 50.69984,17.37467 5.12696,1.42415 2.84831,11.39322 -11.39322,49.27569 -15.09602,41.30043 -41.30043,94.56375 -59.24476,121.62266 -21.07746,31.33136 -51.2695,60.95374 -74.05595,72.34696 -34.4645,17.37467 -70.06832,11.1084 -105.95698,-18.22915 -55.82679,-46.14256 -108.23562,-153.80852 -138.99732,-285.40024 -5.98144,-25.91959 -11.39322,-47.85154 -12.24771,-48.70603 -1.42416,-1.13932 -40.44595,5.69661 -53.83298,9.39941 -5.98145,1.70898 -5.98145,1.70898 9.39941,64.37171 50.41501,206.21734 138.99732,332.11245 244.38463,347.49331 30.19205,4.55728 55.8268,-0.28484 86.87333,-15.66569 18.51399,-9.11458 28.48306,-16.805 50.13018,-38.73696 14.81119,-15.09602 33.89484,-37.02797 41.8701,-48.99086 28.76789,-41.87009 58.10544,-104.24799 78.89807,-166.91072 4.27246,-13.1022 8.82975,-23.64093 9.68424,-23.64093 1.13932,0 10.2539,1.99381 20.5078,4.55729 85.734,20.5078 182.861232,23.07127 242.675654,6.5511 C 72.872905,490.2708 121.2941,426.18392 115.02783,345.8617 109.04639,266.39397 75.15155,190.3442 8.7860248,106.60401 -12.006608,80.399597 -89.480525,1.216696 -94.322645,1.216696 c -1.424153,0 -11.108395,9.96907 -21.647125,21.931955 l -19.08365,21.931954 27.9134,25.634753 C -3.4616902,166.70326 57.776885,279.781 53.219595,366.93916 c -0.854491,18.79882 -2.848306,25.91958 -9.684239,38.45213 -26.489244,48.99086 -107.096299,68.929 -219.034716,54.11781 -19.93814,-2.56348 -81.74638,-13.9567 -83.45536,-15.38085 -0.56966,-0.28483 3.13314,-19.36848 7.69043,-42.15493 10.53873,-49.84535 18.22915,-101.11485 25.06509,-162.92309 7.12076,-65.79586 7.12076,-273.152526 0,-338.94839 -6.83594,-61.80824 -14.52636,-113.07774 -25.06509,-162.92309 -4.55729,-22.78645 -8.26009,-41.58527 -7.69043,-42.15493 1.70898,-1.42415 60.95374,-12.53254 84.87951,-15.95051 33.89484,-4.84212 102.539011,-4.84212 126.46478,0 52.1239961,10.53873 85.449174,33.04035 97.412058,66.36553 6.266273,17.65949 5.696612,57.8206 -1.424153,86.30366 -7.690425,29.62238 -27.628566,69.783493 -48.7060288,97.98172 -9.3994091,12.247715 -17.0898352,23.071277 -17.0898352,23.925769 0,0.854492 9.6842401,10.253901 21.6471245,20.792632 L 25.87586,-6.1888991 34.135946,-15.873139 C 51.225781,-36.09611 79.424009,-80.52968 88.823418,-102.74647 139.23843,-218.67251 116.73681,-315.79974 29.578657,-359.09399 c -64.08688,-31.61619 -163.207927,-35.03416 -278.564307,-9.96907 -14.24153,3.13314 -26.20441,5.41178 -26.48924,4.84212 -0.56967,-0.28483 -6.26628,-15.95051 -12.81738,-34.74933 -33.61001,-95.9879 -73.77112,-165.20174 -123.33164,-211.34429 -42.72459,-39.87628 -90.00646,-55.54196 -139.56699,-45.85772 z m 232.99142,371.98873 c 2.27864,3.98763 18.22916,88.58232 22.78645,121.62266 25.34992,183.430896 20.79263,366.57696 -12.81738,539.75395 -4.84212,24.2106 -9.96907,45.28806 -11.39322,46.99705 -3.41797,3.41796 -56.96612,-14.52636 -118.48953,-40.16111 C -601.89074,315.95449 -781.04917,202.59192 -899.82353,91.223159 l -23.07127,-21.362293 29.05272,-27.058905 c 93.70926,-86.588497 218.46505,-171.468011 349.48712,-237.833531 65.2262,-33.04035 100.83002,-48.70603 166.62589,-73.20146 48.70603,-17.94433 56.96611,-20.22297 59.52959,-15.95052 z"
     id="path920"
     style="fill:#007dff;fill-opacity:1;stroke:none;stroke-width:0.284831" /><text
     xml:space="preserve"
     transform="translate(-1694.5635,-1435.1483)"
     id="text5913"
     style="font-style:normal;font-weight:normal;font-size:500px;line-height:1.25;font-family:sans-serif;white-space:pre;shape-inside:url(#rect5915);fill:#007dff;fill-opacity:1;stroke:#007dff;stroke-width:10;stroke-miterlimit:4;stroke-dasharray:none;stroke-opacity:1"><tspan
       x="70.710938"
       y="2773.4972"
       id="tspan25435"><tspan
         style="font-family:'Rubik Light';-inkscape-font-specification:'Rubik Light, '"
         id="tspan25433">REACTOR</tspan></tspan></text><g
     id="g23253"><path
       d="m -560.5903,-77.111714 c -25.0651,6.835934 -48.70603,20.507802 -67.22002,39.306621 -32.18586,32.1858551 -45.00323,62.947558 -45.00323,107.381128 0,44.433575 12.81737,75.195275 45.00323,107.381125 28.48306,28.76789 64.65654,43.57908 105.67214,43.57908 125.04063,0 195.96344,-142.415287 120.48334,-242.10599 -20.79263,-27.628567 -49.27569,-46.997046 -82.03121,-55.257133 -21.07746,-5.411781 -56.96611,-5.696612 -76.90425,-0.284831 z m 74.91044,63.80205 c 15.95051,7.1207649 36.45831,25.634753 43.86391,40.161112 8.82975,17.374666 12.24771,40.445943 8.54491,58.95993 -4.55728,21.647122 -11.10839,33.894842 -26.20441,48.421202 -18.22916,17.65949 -36.17348,25.06509 -62.3779,25.06509 -19.08364,0 -23.92576,-1.13932 -41.30043,-9.96907 -31.61619,-16.23535 -49.56052,-45.00323 -49.56052,-80.037395 0,-64.3717115 67.78968,-108.520451 127.03444,-82.600869 z"
       id="path922"
       style="fill:#ff9e00;fill-opacity:1;stroke:none;stroke-width:0.284831" /><circle
       style="fill:#ff9e00;fill-opacity:1;stroke:none;stroke-width:20;stroke-linecap:round;stroke-linejoin:round"
       id="path23147"
       cx="-522.26849"
       cy="71.1884"
       r="134.3503" /></g></g></svg>
